<svg width="17" height="20" viewBox="0 0 17 20" fill="none" xmlns="http://www.w3.org/2000/svg">
<rect y="3" width="17" height="16" rx="4" fill="#00915C"/>
<rect x="8" y="4" width="1" height="14" rx="0.5" fill="white"/>
<rect x="15" y="10" width="1" height="13" rx="0.5" transform="rotate(90 15 10)" fill="white"/>
<path d="M4.048 9.032C3.73867 9.032 3.504 8.944 3.344 8.768C3.18933 8.58667 3.112 8.37333 3.112 8.128C3.112 7.97333 3.152 7.81333 3.232 7.648C3.312 7.48267 3.44533 7.34133 3.632 7.224C3.73867 7.15467 3.87467 7.10133 4.04 7.064C4.21067 7.02133 4.36267 6.98667 4.496 6.96C4.20267 6.86933 3.97333 6.76267 3.808 6.64C3.64267 6.51733 3.50667 6.392 3.4 6.264C3.25067 6.06133 3.18133 5.84267 3.192 5.608C3.208 5.368 3.31733 5.16267 3.52 4.992C3.664 4.86933 3.82133 4.80533 3.992 4.8C4.168 4.79467 4.336 4.84 4.496 4.936C4.656 5.032 4.78667 5.17333 4.888 5.36C5.00533 5.568 5.088 5.74933 5.136 5.904C5.18933 6.05333 5.248 6.18933 5.312 6.312C5.38133 6.43467 5.49067 6.55733 5.64 6.68C5.704 6.65867 5.76 6.62933 5.808 6.592C5.856 6.55467 5.90933 6.48 5.968 6.368C5.83467 6.336 5.71467 6.256 5.608 6.128C5.50133 6 5.448 5.82133 5.448 5.592C5.448 5.34667 5.52267 5.152 5.672 5.008C5.82133 4.85867 6.04267 4.784 6.336 4.784C6.576 4.784 6.77067 4.864 6.92 5.024C7.06933 5.17867 7.144 5.37333 7.144 5.608C7.144 5.85867 7.09333 6.05867 6.992 6.208C6.896 6.352 6.76533 6.47733 6.6 6.584C6.51467 6.648 6.41067 6.704 6.288 6.752C6.16533 6.79467 6.03467 6.832 5.896 6.864C6.11467 6.896 6.32267 6.95733 6.52 7.048C6.71733 7.13867 6.89867 7.26933 7.064 7.44C7.18667 7.56267 7.26933 7.712 7.312 7.888C7.36 8.05867 7.36 8.22933 7.312 8.4C7.26933 8.57067 7.176 8.71467 7.032 8.832C6.88267 8.94933 6.71733 9.01067 6.536 9.016C6.35467 9.02133 6.18133 8.97867 6.016 8.888C5.856 8.792 5.728 8.656 5.632 8.48C5.536 8.304 5.46133 8.13067 5.408 7.96C5.35467 7.784 5.29333 7.624 5.224 7.48C5.16 7.33067 5.064 7.21067 4.936 7.12C4.85067 7.168 4.8 7.22667 4.784 7.296C4.768 7.36 4.77067 7.43467 4.792 7.52C4.81867 7.6 4.84533 7.688 4.872 7.784C4.904 7.87467 4.92 7.97067 4.92 8.072C4.92 8.232 4.888 8.38667 4.824 8.536C4.76 8.68 4.66133 8.8 4.528 8.896C4.4 8.98667 4.24 9.032 4.048 9.032Z" fill="white"/>
<path d="M12.511 17.018C11.809 17.018 11.248 16.811 10.828 16.397C10.414 15.977 10.207 15.386 10.207 14.624C10.207 14.156 10.303 13.745 10.495 13.391C10.687 13.037 10.954 12.761 11.296 12.563C11.644 12.359 12.049 12.257 12.511 12.257C13.027 12.257 13.456 12.359 13.798 12.563C14.14 12.761 14.395 13.037 14.563 13.391C14.737 13.745 14.824 14.156 14.824 14.624C14.824 15.386 14.632 15.977 14.248 16.397C13.87 16.811 13.291 17.018 12.511 17.018ZM11.278 14.471C11.278 14.657 11.371 14.789 11.557 14.867C11.743 14.939 12.061 14.975 12.511 14.975C12.961 14.975 13.279 14.939 13.465 14.867C13.651 14.789 13.744 14.657 13.744 14.471C13.744 14.291 13.651 14.165 13.465 14.093C13.279 14.021 12.961 13.985 12.511 13.985C12.061 13.985 11.743 14.021 11.557 14.093C11.371 14.165 11.278 14.291 11.278 14.471Z" fill="white"/>
</svg>
